<svg width="38" height="39" viewBox="0 0 38 39" fill="none" xmlns="http://www.w3.org/2000/svg">
<path fill-rule="evenodd" clip-rule="evenodd" d="M6.97496 1.25236C6.97496 0.967743 7.08317 0.69478 7.27578 0.493522C7.4684 0.292265 7.72964 0.179199 8.00203 0.179199H30.5977C30.8701 0.179199 31.1313 0.292265 31.324 0.493522C31.5166 0.69478 31.6248 0.967743 31.6248 1.25236V2.32553H36.7602C37.0326 2.32553 37.2938 2.4386 37.4864 2.63985C37.679 2.84111 37.7872 3.11407 37.7872 3.3987V9.83769C37.7872 11.2608 37.2462 12.6256 36.2831 13.6319C35.3201 14.6382 34.0139 15.2035 32.6519 15.2035H30.9233C29.3406 19.8825 25.2436 23.3209 20.3269 23.7448V30.2278H27.5165C27.7889 30.2278 28.0501 30.3409 28.2427 30.5422C28.4354 30.7434 28.5436 31.0164 28.5436 31.301V37.74C28.5436 38.0246 28.4354 38.2976 28.2427 38.4988C28.0501 38.7001 27.7889 38.8132 27.5165 38.8132H11.0833C10.8109 38.8132 10.5496 38.7001 10.357 38.4988C10.1644 38.2976 10.0562 38.0246 10.0562 37.74V31.301C10.0562 31.0164 10.1644 30.7434 10.357 30.5422C10.5496 30.3409 10.8109 30.2278 11.0833 30.2278H18.2728V23.7448C13.3572 23.3209 9.25917 19.8825 7.67645 15.2035H5.94788C4.58589 15.2035 3.27969 14.6382 2.31662 13.6319C1.35355 12.6256 0.8125 11.2608 0.8125 9.83769V3.3987C0.8125 3.11407 0.92071 2.84111 1.11332 2.63985C1.30594 2.4386 1.56718 2.32553 1.83958 2.32553H6.97496V1.25236ZM29.5706 10.9109V2.32553H9.02911V10.9109C9.02911 16.8379 13.6273 21.6425 19.2999 21.6425C24.9724 21.6425 29.5706 16.8379 29.5706 10.9109ZM31.6248 4.47186V13.0572H32.6519C33.4691 13.0572 34.2528 12.718 34.8306 12.1142C35.4085 11.5104 35.7331 10.6916 35.7331 9.83769V4.47186H31.6248ZM2.86665 4.47186H6.97496V13.0572H5.94788C5.13069 13.0572 4.34697 12.718 3.76912 12.1142C3.19128 11.5104 2.86665 10.6916 2.86665 9.83769V4.47186ZM12.1103 32.3742V36.6668H26.4894V32.3742H12.1103Z" fill="#64FFDA"/>
</svg>
